<?xml version="1.0" standalone="no"?>
<!DOCTYPE svg PUBLIC "-//W3C//DTD SVG 20010904//EN"
 "http://www.w3.org/TR/2001/REC-SVG-20010904/DTD/svg10.dtd">
<svg version="1.0" xmlns="http://www.w3.org/2000/svg"
 width="216.000000pt" height="216.000000pt" viewBox="0 0 216.000000 216.000000"
 preserveAspectRatio="xMidYMid meet">
<metadata>
Created by potrace 1.14, written by Peter Selinger 2001-2017
</metadata>
<g transform="translate(0.000000,216.000000) scale(0.100000,-0.100000)"
fill="#000000" stroke="none">
<path d="M21 1587 c11 -29 75 -185 141 -347 66 -162 156 -388 201 -501 l82
-205 636 0 c430 0 636 4 636 11 0 5 57 149 126 320 69 171 166 411 216 534 50
124 89 226 87 229 -3 2 -29 -12 -58 -31 -29 -19 -181 -117 -338 -217 -296
-189 -357 -228 -376 -242 -8 -6 -57 71 -149 232 -76 132 -141 242 -144 245 -4
2 -54 -78 -111 -178 -57 -100 -120 -210 -140 -244 l-36 -62 -129 84 c-72 45
-193 123 -270 172 -77 49 -197 126 -267 171 l-127 81 20 -52z m1180 -297 c61
-107 108 -195 103 -197 -5 -2 -58 -35 -117 -74 l-108 -70 -115 73 c-63 40
-113 78 -112 83 8 29 224 393 230 387 4 -4 57 -95 119 -202z m-754 -8 c204
-132 307 -204 305 -214 -2 -12 -100 -187 -239 -427 l-25 -44 -43 104 c-60 148
-295 730 -306 757 -5 12 -7 22 -5 22 3 0 143 -89 313 -198z m1428 -178 c-80
-197 -158 -389 -173 -426 -15 -37 -31 -67 -35 -65 -4 1 -68 106 -141 234
l-134 231 224 144 c123 78 264 169 312 200 48 31 88 53 90 49 1 -4 -63 -169
-143 -367z m-952 -128 l99 -63 -154 -98 c-84 -54 -182 -117 -218 -140 -36 -24
-66 -42 -67 -41 -5 4 229 406 235 406 4 0 51 -29 105 -64z m512 -93 c50 -86
103 -179 119 -207 28 -49 28 -50 5 -35 -13 9 -107 69 -209 134 -102 64 -191
123 -198 129 -10 10 6 25 80 73 51 34 98 62 103 62 6 0 51 -70 100 -156z
m-148 -139 c109 -70 203 -132 210 -138 9 -8 -100 -11 -417 -11 -345 -1 -428 2
-418 12 22 22 402 262 415 263 7 0 102 -57 210 -126z"/>
</g>
</svg>
